<?xml version="1.0" encoding="utf-8"?>
<!-- Generator: Adobe Illustrator 19.2.0, SVG Export Plug-In . SVG Version: 6.00 Build 0)  -->
<svg version="1.1" id="Layer_1" xmlns="http://www.w3.org/2000/svg" xmlns:xlink="http://www.w3.org/1999/xlink" x="0px" y="0px"
	 viewBox="0 0 155.9 112.5" style="enable-background:new 0 0 155.9 112.5;" xml:space="preserve">
<style type="text/css">
	.st0{fill:#FFFFFF;}
	.st1{fill-rule:evenodd;clip-rule:evenodd;fill:#FFFFFF;}
</style>
<g>
	<g>
		<g>
			<path class="st0" d="M74.3,71.2c0.3,1.7,1.7,2.9,3.4,2.9c1.7,0,3.2-1.3,3.4-2.9c2.3-0.1,4.1-2,4.1-4.3h-15
				C70.2,69.2,72,71.1,74.3,71.2L74.3,71.2z M74.3,71.2"/>
			<path class="st0" d="M84.8,63.6H70.3c-0.6,0-1.1,0.5-1.1,1.1l0,0c0,0.6,0.5,1.1,1.1,1.1h14.5c0.6,0,1.1-0.5,1.1-1.1l0,0
				C85.8,64.1,85.4,63.6,84.8,63.6z"/>
		</g>
		<path class="st1" d="M113.4,31.9c-0.1-1-1.3-1.8-2.3-1.8c-3.3,0-6.2-1.9-7.4-4.9c-1.3-3.1-0.4-6.6,2-8.9c0.8-0.7,0.9-1.9,0.2-2.7
			c-1.7-2.1-3.6-4.1-5.7-5.7c-0.8-0.7-2-0.6-2.7,0.2c-2.1,2.4-6,3.3-9,2c-3.1-1.3-5-4.4-4.9-7.8c0.1-1.1-0.7-2-1.8-2.1
			c-2.7-0.3-5.4-0.3-8.1,0c-1,0.1-1.8,1-1.8,2.1c0.1,3.3-1.9,6.4-4.9,7.7c-2.9,1.2-6.8,0.3-8.9-2c-0.7-0.8-1.9-0.9-2.7-0.2
			c-2.2,1.7-4.1,3.6-5.8,5.7c-0.7,0.8-0.6,2,0.2,2.7c2.5,2.3,3.3,5.9,2,9c-1.2,3-4.3,4.9-7.8,4.9c-1.1,0-2,0.7-2.1,1.8
			c-0.3,2.7-0.3,5.5,0,8.2c0.1,1,1.3,1.8,2.4,1.8c3.1-0.1,6.1,1.9,7.4,4.9c1.3,3.1,0.4,6.6-2,8.9c-0.8,0.7-0.9,1.9-0.2,2.7
			c1.7,2.1,3.6,4.1,5.7,5.8c0.8,0.7,2,0.6,2.7-0.2c2.2-2.4,6-3.3,9-2c0.9,0.4,1.8,1,2.5,1.6h0.1V54c-1.7-2.9-3.7-5.8-5.8-8.5
			c-2.4-3-3.8-6.8-3.8-11c0-9.9,8-17.8,17.8-17.8c9.9,0,17.8,8,17.8,17.8c0,4.2-1.4,8-3.8,11c-2,2.5-4.2,5.8-5.9,8.6v9.2H86
			c0.7-0.6,1.4-1.1,2.3-1.4c3-1.2,6.8-0.3,8.9,2c0.7,0.8,1.9,0.9,2.7,0.2c2.1-1.7,4.1-3.6,5.8-5.7c0.7-0.8,0.6-2-0.2-2.7
			c-2.5-2.3-3.3-5.9-2-9c1.2-2.9,4.2-4.9,7.4-4.9l0.4,0c1,0.1,2-0.7,2.1-1.8C113.7,37.4,113.7,34.7,113.4,31.9z"/>
	</g>
	<g>
		<g>
			<path class="st0" d="M0,77.1h8c5.9,0,9.3,3.6,9.3,9.6v9.6c0,6.2-3.4,9.8-9.2,9.8H0V77.1z M8.1,100.6c2.1,0,3.2-1.5,3.2-4.2v-9.6
				c0-2.7-1.1-4-3.2-4H5.9v17.9H8.1z"/>
			<path class="st0" d="M17,106.7c3.2,0,5-1.1,5-4.9V77.1h5.9v24.7c0,6.6-3.7,10.8-10.9,10.8V106.7z"/>
			<path class="st0" d="M39.4,97.7h6.1c0,2.3,1.2,3.3,3,3.3c2,0,2.9-1.1,2.9-2.6C51.4,93.6,40,93,40,84.2c0-4.4,3.1-7.7,8.5-7.7
				c5.4,0,8.6,3.2,8.6,8.6H51c0-1.9-0.9-2.9-2.6-2.9c-1.5,0-2.5,0.8-2.5,2.2c0,4.6,11.5,4.9,11.5,14.1c0,4.8-3.4,8.3-9.1,8.3
				C42.9,106.8,39.4,103.6,39.4,97.7z"/>
			<path class="st0" d="M76.1,99.2c-0.5,4.7-3.5,7.5-8.4,7.5c-4.9,0-7.9-3.2-7.9-8.7v-5.9c0-5.4,2.9-8.5,7.9-8.5
				c5.1,0,8.1,3.2,8.1,8.5v4.9H65.5V98c0,2.3,0.8,3.3,2.3,3.3c1.7,0,2.2-0.6,2.6-2.1H76.1z M65.5,92.1v1.2h4.7v-1.2
				c0-2.2-0.8-3.2-2.4-3.2C66.3,88.9,65.5,89.8,65.5,92.1z"/>
			<path class="st0" d="M91.5,84.1v5.4c-0.8-0.4-1.6-0.6-2.7-0.6c-2.4,0-3.8,1.1-3.8,3.4v13.8h-5.6v-22h3.7l0.4,2.3
				c1.2-1.9,3.1-2.9,5.6-2.9C90,83.6,90.9,83.8,91.5,84.1z"/>
			<path class="st0" d="M109.8,84.2l-5.9,22h-6.4l-5.9-22h6l1.3,6.9c0.6,2.9,1.3,6.6,1.6,8.6h0.2c0.3-2,1-5.7,1.6-8.6l1.3-6.9H109.8
				z"/>
			<path class="st0" d="M111.7,77.8c0-1.8,1.3-3.1,3.1-3.1c1.7,0,3.1,1.3,3.1,3.1c0,1.7-1.4,3.1-3.1,3.1
				C113,80.9,111.7,79.5,111.7,77.8z M111.9,84.2h5.7v22h-5.7V84.2z"/>
			<path class="st0" d="M121.3,98.4v-6.6c0-5.1,2.9-8.2,7.9-8.2c5.2,0,7.8,3.1,8,8.2h-5.7c-0.1-1.9-0.8-2.8-2.2-2.8
				c-1.5,0-2.2,1-2.2,2.8v6.6c0,1.9,0.8,2.9,2.2,2.9c1.5,0,2.2-1,2.4-2.9h5.7c-0.1,5.2-3.2,8.3-8.2,8.3
				C124.2,106.7,121.3,103.6,121.3,98.4z"/>
			<path class="st0" d="M155.9,99.2c-0.5,4.7-3.5,7.5-8.4,7.5c-4.9,0-7.9-3.2-7.9-8.7v-5.9c0-5.4,2.9-8.5,7.9-8.5
				c5.1,0,8.1,3.2,8.1,8.5v4.9h-10.3V98c0,2.3,0.8,3.3,2.3,3.3c1.7,0,2.2-0.6,2.6-2.1H155.9z M145.3,92.1v1.2h4.7v-1.2
				c0-2.2-0.8-3.2-2.4-3.2C146.1,88.9,145.3,89.8,145.3,92.1z"/>
		</g>
	</g>
</g>
</svg>
