<?xml version="1.0" encoding="utf-8"?>
<!-- Generator: Adobe Illustrator 19.2.0, SVG Export Plug-In . SVG Version: 6.00 Build 0)  -->
<svg version="1.1" id="Layer_1" xmlns="http://www.w3.org/2000/svg" xmlns:xlink="http://www.w3.org/1999/xlink" x="0px" y="0px"
	 viewBox="0 0 52.7 26.4" style="enable-background:new 0 0 52.7 26.4;" xml:space="preserve">
<style type="text/css">
	.st0{fill:#48B6B4;}
</style>
<path class="st0" d="M52.2,0.7L52,0.5c-0.5-0.5-1.4-0.5-2-0.1h0l0,0c-0.1,0-0.1,0.1-0.2,0.1l-3.7,3.6l-17.9,17c-1,0.9-2.6,0.9-3.6,0
	L6.1,3.5L2.9,0.4c-0.6-0.6-1.6-0.6-2.2,0L0.5,0.6c-0.6,0.6-0.6,1.5,0,2.1l3.7,3.6c0,0,0.1,0.1,0.1,0.1l20.3,19.3
	c1,0.9,2.6,0.9,3.6,0L48.5,6.4c0,0,0,0,0,0l1.1-1.1l1.6-1.5c0,0,0.1-0.1,0.1-0.1l0.9-0.9C52.9,2.3,52.8,1.3,52.2,0.7z"/>
</svg>
